<svg fill="#6DB33F" role="img" viewBox="0 0 25 24" xmlns="http://www.w3.org/2000/svg"><title>Spring</title><path d="M22.364 1.403a10.463 10.463 0 0 1-1.285 2.249A11.981 11.981 0 1 0 4.341 20.785l0.445 0.396a11.968 11.968 0 0 0 19.655-8.307c0.346-3.016-0.569-6.873-2.077-11.472zM6.072 20.884a1.019 1.019 0 1 1-0.148-1.434 1.041 1.041 0 0 1 0.148 1.434z m16.218-3.585c-2.942 3.931-9.271 2.596-13.301 2.794 0 0-0.717 0.049-1.433 0.148 0 0 0.272-0.124 0.618-0.247 2.843-0.989 4.178-1.187 5.908-2.077 3.239-1.656 6.477-5.291 7.12-9.048-1.236 3.61-4.994 6.725-8.405 7.985-2.349 0.865-6.576 1.706-6.576 1.706l-0.174-0.099c-2.868-1.409-2.967-7.639 2.275-9.642 2.299-0.89 4.475-0.395 6.972-0.989 2.645-0.618 5.711-2.596 6.947-5.191 1.384 4.178 3.066 10.655 0.049 14.66z"/></svg>