<svg fill="#6DB33F" role="img" viewBox="0 0 27 24" xmlns="http://www.w3.org/2000/svg"><title>Spring Boot</title><path d="M26.525 10.558l-5.269-9.116c-0.456-0.792-1.578-1.442-2.495-1.442H8.234c-0.912 0-2.039 0.65-2.495 1.442L0.475 10.558c-0.456 0.792-0.456 2.086 0 2.878l5.264 9.122c0.456 0.792 1.578 1.442 2.495 1.442h10.532c0.912 0 2.034-0.65 2.495-1.442l5.264-9.121c0.456-0.792 0.456-2.087 0-2.879zM12.36 5.043c0-0.598 0.488-1.085 1.085-1.085s1.085 0.488 1.085 1.085v6.485c0 0.598-0.488 1.085-1.085 1.085s-1.085-0.487-1.085-1.085z m1.085 13.846c-4.058 0-7.36-3.303-7.36-7.361 0.005-2.328 1.106-4.514 2.972-5.908a0.964 0.964 0 0 1 1.353 0.199 0.964 0.964 0 0 1-0.2 1.353c-2.406 1.788-2.91 5.19-1.122 7.596 1.788 2.406 5.19 2.91 7.597 1.122 1.379-1.022 2.191-2.642 2.191-4.362a5.455 5.455 0 0 0-2.212-4.372c-0.43-0.315-0.519-0.923-0.205-1.353 0.315-0.43 0.923-0.519 1.353-0.204 1.882 1.389 2.988 3.591 2.993 5.929 0 4.063-3.303 7.36-7.36 7.361z"/></svg>