<svg fill="#24C8D8" role="img" viewBox="0 0 22 24" xmlns="http://www.w3.org/2000/svg"><title>Tauri</title><path d="M12.911 0a8.72 8.72 0 0 0-8.308 6.139c1.05-0.515 2.18-0.845 3.342-0.976 2.415-3.363 7.4-3.412 9.88-0.097 2.48 3.315 1.025 8.084-2.883 9.45a6.131 6.131 0 0 1-0.3 2.762 8.72 8.72 0 0 0 3.01-1.225A8.72 8.72 0 0 0 12.912 0z m0.082 6.451a2.284 2.284 0 1 0-0.15 4.566 2.284 2.284 0 0 0 0.15-4.566z m-5.629 0.27a8.72 8.72 0 0 0-3.031 1.235 8.72 8.72 0 1 0 13.06 9.913 10.174 10.173 90 0 1-3.343 0.965 6.125 6.125 0 1 1-7.028-9.343 6.115 6.114 90 0 1 0.342-2.772z m1.713 6.27a2.284 2.284 0 0 0-2.284 2.283 2.284 2.284 0 0 0 2.284 2.284 2.284 2.284 0 0 0 2.284-2.284 2.284 2.284 0 0 0-2.284-2.284z"/></svg>